<svg xmlns="http://www.w3.org/2000/svg" width="512" height="512" viewBox="0 0 512 512">
  <defs>
    <linearGradient id="g" x1="0" y1="0" x2="1" y2="1">
      <stop offset="0" stop-color="#B64CFF"/>
      <stop offset="1" stop-color="#7BDA00"/>
    </linearGradient>
  </defs>

  <rect x="40" y="40" width="432" height="432" rx="48" fill="#1A1A1E" stroke="url(#g)" stroke-width="10"/>

  <!-- Simple shoe silhouette (placeholder) -->
  <path d="M128 320c64-10 92-38 122-80l18-26c10-14 26-22 44-22h48c16 0 32 8 42 20l40 48c10 12 14 28 10 43-8 30-40 59-90 59H128c-18 0-32-14-32-32 0-16 12-29 28-30z"
        fill="url(#g)"/>
  <path d="M160 344h288c8 0 14 6 14 14v12c0 14-12 26-26 26H156c-14 0-26-12-26-26v-2c0-12 10-24 30-24z"
        fill="#2A2A2A" opacity="0.9"/>
</svg>
